/* XPM */
static char *_8801da701bf46c6f476df1c86ce13f0BG5z6A1Kev9Z2AO9[] = {
/* columns rows colors chars-per-pixel */
"32 32 12 1 ",
"  c None",
". c #412320",
"X c #59302C",
"o c #5C322D",
"O c #6D3B36",
"+ c #434F65",
"@ c #9A544C",
"# c #6F7F9F",
"$ c gray55",
"% c #8895AF",
"& c gray68",
"* c #A6B0C4",
/* pixels */
"                                ",
"                                ",
"                                ",
"                                ",
"             %%%%%%             ",
"             %%%%%%             ",
"       %%%%%+%%%%%%+%%%%%       ",
"       %%%%%+******+%%%%%       ",
"+%%%%%+%%%%%+######+%%%%%+%%%%%+",
"+%%%%%+*****+######+*****+%%%%%+",
"+%%%%%+#####+######+#####+%%%%%+",
"+*****+#####+######+#####+*****+",
"+#####+#####X.XXXX.X#####+#####+",
"+#####XXX.XXX.XXXX.XXX.XXX#####+",
"+#####XXX.OOOoOOOOoOOO.XXX#####+",
"++++++OOOoOOOoOOOOoOOOoOOO++++++",
"+*****$$&oOOOoOOOOoOOOoOOO*****+",
"+#####$&&oOOOoOOOOoOOOoOOO#####+",
"+#####OOOoO&OoOOOOoO&OoOOO#####+",
"+#####OOOoOOOoOOOOoOOOoOOO#####+",
"+#####OOOoOOOoOOOOoOOOoO&O#####+",
"++++++OOOoOOOoOOOOoOOOoO&O++++++",
"+*****OOOoOOOoOOOOoOOOoO&O*****+",
"+#####OOOoOOOoOOOOoOOOoO&O#####+",
"+#####OOOoOOOoOOOOoOOOoO&O#####+",
"+#####OOOoOOOoOOOOoOOOoOOO#####+",
"+#####OOOoOO&oOOOOoO&OoOOO#####+",
"++++++OOOoOOOoOOOOoOOOoOOO++++++",
"+*****$$&oOOOoOOOOoOOOoOOO*****+",
"+#####$&&oOOOoOOOOoOOOoOOO#####+",
"+#####OOOoOOOoOOOOoOOOoOOO#####+",
"+#####@@@o@@@o@@@@o@@@o@@@#####+"
};
