/* XPM */
static char *_34164b53e524035dbf0c6f1c3a38babv7oxacDE9VkMQvDv[] = {
/* columns rows colors chars-per-pixel */
"64 64 20 1 ",
"  c black",
". c gray11",
"X c #2C2C2C",
"o c gray22",
"O c #483818",
"+ c #5C4020",
"@ c #744C28",
"# c gray25",
"$ c #484848",
"% c gray33",
"& c gray36",
"* c gray44",
"= c #7C7C7C",
"- c gray55",
"; c #989898",
": c gray66",
"> c #B4B4B4",
", c #C0C0C0",
"< c #D0D0D0",
"1 c gainsboro",
/* pixels */
"................................................................",
"o**===--;;;:>>>,,,,,,,>>>>::;;--=====*****&&&&%%%%$$%%%&&&&****.",
"$***===-;;;::::>,,,,,,>>>>::;;---====*****&&&&%%%%$$%%%%&&&&***.",
"$*$=**=----$=::>,,,,,$=,,>::::;$=-===****$=&&&&%%%%o=$$%&&&&$=*.",
"$*X$**=----X$::>>>,,,X$,,>>>::;X$--===***X$**&&%%%%Xo$$%&&&&X$*.",
"%&****==---;::::>>,,,,,,,>>>::;;---===*******&&&%%%$$$$%%%%&&&*.",
"%&*****====-;;;:>>>>,,,,,,>>::::;--===********&&&&%%%$$$%%%%&&&.",
"%&*****====-;;;:>>>>,,,,,,,,>>::;;;--====*****&&&&%%%$$$%%%%&&&.",
"%&&****====-;;;;::>>,,,,,,,,>>::;;;--====*****&&&&%%%$$$$$$%&&&.",
"%%&*****====---;::ooooooooooooXXXXXXXXXXXXXXXXX&&&&%%%%$$$$%%%&.",
"%%&&&&**====----;:<XXXXXXXXXXX................,*&&&&%%%$$$$%%%&.",
"%%&&&&**=====---;;><::::;;--=====***&&&&&&&%%,:***&&&%%%%$$$%%&.",
"%%$=&&&****$*==-;;:><>>:;;;;--===******&&&&&,:****&$=%%%%$$$o=%.",
"%$X$&&&****X$==---;;><>>::;;--=====*****&&&,:*****&X$&&%%%$$Xo%X",
"%$%&&&&****====---;;:,<>::;;--=====*****&&,:==*****&&&&%%%$$$$%X",
"%$%%%%&&****====--;;;:,<::::;;-====*****&,:===*****&&&&%%%$$$$%X",
"%$$%%%&&*******===--;::,<>::;;---===****,:======***&&&&&&%%%%$$X",
"%$$%%%&&**oo***===--;::>,<::;;---===***,:----===*****&&&&%%%%$$X",
"%$$%%%%&&&oXo**===---;;::,<:::;--===**,>;----===*****&&&&%%%%$$X",
"%$$$$$%%&&o..o**====-;;:::,<::;;;--==1<::;---=====**o.&&&&%%%%$X",
"%$$$$$%%&&o.;.o*====-;;::::,<:;;;--=1<:::;;;;-====*o.-*&&&&&&%$X",
"%%o=$$$%&&o.-;.o**===--;;::>,<:;;--1<>:::;;;;-====o.*-*&&&&&$=$X",
"%%Xo$$$%%%o.--;.o*===--;;:::>,<;;;1<,>>>>:;;;-===o.%*-***&&&X$%X",
"%%%%$$$$%%o.--;;.o**===--;;:>>,1:1<,,,>>>::::;--o.&%*-***&&&&&%X",
"%%%%$$$$%%o.=====.o*===--;;:>>><1<,,,,>>>>:::;-o.&&%*-****&&&&%X",
"%&%%%$$$$$o-;;;;;;o*===--;$=:::><,,,,$=>>>:::;o.&&&&*-****&&&&%X",
"%&%%%$$$$$%%%&&&*****====-X$:::>>>>,,X$,,>>>>o.**&&&*;=***&&&&&X",
"$&%%%...X$%%%%&&*****====--;:::>>>>,,,,,,,>>o.***&&&*;=******&&X",
"$&&&% ..X$$%%%%&&&***====---;;;:>>>>,,,,,,>o.=***&&&*;=******&&X",
"$&&&% ..X$$%@@+&&&&&***====-;;;::::>,,,,,,o.==*****&*;===*****&X",
"$&&&% ..o$$$@ O&&&&&***====-;;;::::>,,,,,o.===*****&*;===*****&X",
"$*$=& ..o$$$@ O%&&&&***=====---;:::>>,,,o.-=====***&*;===***$=&X",
"$*X$& ..o%$$@ O%%%&&&****===---;::::>,,,1;;-====****=;-===**X$*X",
"$***& ..o%$$@ O%%%&&&****===---;::::>,,,<1;-====****=;-===*****X",
"$***& ..#%%$+OO%%%&&&****======-;;;:>>>>,<1-=====***=;-===*****X",
"$***& ..#%%$$$$$%%%%&&&****====-;;;;:>>>,,<1--=====*=;---====**X",
"$****  .#%%$$$$$$$%%&&&***$-====---;:$=:>,,<1---===*=:;--====**X",
"$****&###&%%%%$$$$%%&&&***X$====---;:X$:>,,,<1--===*=:;;;-====*X",
"$=****&&&&oooooooo=%%&&&&***====----;:::>>>,,<1-====-:;;;-====*X",
"$=*****&&&o......%=$%%%&&******=oo=-;::::>>,,,<1-===-::;;-=====X",
"$=*****&&&o.%&&&-=$$%%%&&******o..o-;::::>>,,,,<1===-::::;---==X",
"$=$=***&&&o.%%&-=$$$$%%&&&&***o.:>.o-;;;:>>>>,,,<1==-::::;--$*=X",
"$=X$*****&o.%%-=$$$$$%%%%&&**o.::>,.o;;;:::>>,,,,<1=-:>::;--X$=X",
"o===*****&o.$-=%$$$$$%%%%&&*o.:::>>,.o;;:::>>,,,,,<1-:>:::;;;-=X",
"o====*****o.-=&%%%%$$$$%%%%o.;::::>,,.o-;::>>>>,,,,<1:>:::;;;-=X",
"o-=====***o%=&&&%%%%$$$%%%o.-;::::>,,,.o;;;::>>,,,,,<1>>>:;;;--X",
"o---===***o=&&&&%%%%$$$%%o.==-;;;:>>>>,.o;;::>>,,,,,,,,>>>:::;-X",
"o---===*****&&&&%%%%$$$$o.===-;;;;:>>>,,.o;::::>,,,,,,,>>>:::;-X",
"o;--=====***&&&&&&&%%$$o.*====---;::::>,,.o;;::>>>>,,,,,,>:::;;X",
"o;;;-====******&&&&&%$o.**====---;::::>,,,.o;:::>>>,,,,,,>>>>:;X",
"o;$=-====**$=**&&&&&%o.***====----;:::>>>,,.o:::>>>$=,,,,,>>$=:X",
"o:X$-======X$***&&&&o.&******====-;::::>>,,,.o;:>>>X$,,,,,>>X$:X",
"o:;;;--====*****&&&o.&&******====-;::::>>,,,,.o;:::>,,,,,,,,,>:X",
"o:;;;--====*****&&&.===========***************.;:::>,,,,,,,,,>:X",
"o>::;----===*******;;;;;;;;;;;-----------------;:::>>,,,,,,,,>:X",
"o>:::;;--===********&&&&%%%$$$$%%%%&&****====---;;;:>,,,,,,,,,>X",
"o>:::;;--===********&&&&%%%$$$$%%%%&&****====---;;;:>,,,,,,,,,>X",
"o>>>:;;----====*****&&&&%%%$$$$$%%%%&******====-;;;::>>>,,,,,,>X",
"o,>>>::;;--====******&&&&%%%%$$$%%%%&&&&***====----;:>>>>,,,,,,X",
"o,$=>::;;;;$*===*****$=&&%%%%$$o=$$%%&&&&$=**===---$=:::>,,,$=,X",
"o,X$>::;;;;X$=====***X$&&%%%%$$Xo$$%%&&&&X$**====--X$:::>,,,X$,X",
"o,,,>>>::;;-=======*****&&&%%%%$$$$$%&&&&****======-;:::>>>>,,,X",
"o,,,,>>::::;---====*****&&&&&%%%$$$$%%%%&&&****====-;;;;:>>,,,,X",
"................................................................"
};
